<svg id="Capa_1" enable-background="new 0 0 512 512" height="512" viewBox="0 0 512 512" width="512" xmlns="http://www.w3.org/2000/svg"><g><g><path d="m460.8 361.491v-140.193l-409.6.569v139.627l1.597 17.162 68.32 44.92 134.883 29.789 137.456-37.344 64.975-35.047z" fill="#736b6b"/><path d="m437.106 221.331v171.146l21.325-11.503 2.369-19.483v-140.193z" fill="#595353"/><path d="m69.076 422.547c85.249 46.176 183.33 58.596 275.481 37.258l70.025-23.348c9.583-4.235 19.039-8.872 28.341-13.91 11.015-5.966 17.876-17.487 17.876-30.013v-34.134c0 12.527-6.862 24.047-17.876 30.013-11.33 6.137-22.886 11.678-34.625 16.622l-56.568 18.904c-94.217 23.692-195.19 11.851-282.654-35.526-11.014-5.966-17.876-17.486-17.876-30.013v34.133c0 12.527 6.862 24.047 17.876 30.014z" fill="#ffdf40"/><g><path d="m442.924 388.413c-1.93 1.045-3.875 2.049-5.818 3.06v1.061c0 12.527-6.862 24.047-17.876 30.013-9.302 5.039-18.758 9.676-28.341 13.91l-70.025 23.348c-25.219 5.84-50.883 9.133-76.606 9.915 33.62 1.006 67.339-2.283 100.3-9.915l70.025-23.348c9.583-4.235 19.039-8.872 28.341-13.91 11.015-5.966 17.876-17.487 17.876-30.013v-34.134c0 12.527-6.862 24.047-17.876 30.013z" fill="#ffbe40"/></g></g><g><g><path d="m0 159.858v29.013c0 3.152 1.737 6.046 4.518 7.529l243.451 129.841c5.02 2.677 11.043 2.677 16.063 0l243.451-129.841c2.781-1.483 4.518-4.378 4.518-7.529v-29.013z" fill="#595353"/><path d="m488.306 159.858v41.654c0 3.136-1.722 6.016-4.48 7.506l23.656-12.617c2.781-1.483 4.518-4.378 4.518-7.529v-29.013h-23.694z" fill="#403939"/><path d="m247.969 292.108-247.969-132.25 247.969-132.25c5.02-2.677 11.043-2.677 16.063 0l247.968 132.25z" fill="#736b6b"/><path d="m264.031 27.608c-5.02-2.677-11.043-2.677-16.063 0l-3.816 2.035 244.153 130.215-244.152 130.215 3.816 2.035c5.02 2.677 11.043 2.677 16.063 0l247.968-132.25z" fill="#595353"/></g><g><g><path d="m364.837 337.728v-94.333c0-3.065-1.701-5.877-4.415-7.299l-112.455-58.946c-8.317-4.435-11.464-14.773-7.027-23.089 4.434-8.317 14.772-11.465 23.09-7.027l130.625 70.77c2.659 1.441 4.315 4.222 4.315 7.246v112.68h-34.133z" fill="#ffdf40"/></g><g fill="#ffbe40"><path d="m394.655 217.802-130.625-70.77c-6.49-3.462-14.197-2.29-19.383 2.335l126.314 68.434c2.659 1.441 4.316 4.222 4.316 7.246v112.679h-10.439 34.133v-112.678c0-3.024-1.657-5.805-4.316-7.246z"/><circle cx="381.904" cy="341.333" r="25.6"/><path d="m407.504 401.067 15.025 75.126c1.056 5.28-2.983 10.207-8.368 10.207h-64.515c-5.385 0-9.424-4.927-8.368-10.207l15.025-75.126 25.6-17.067z"/></g><path d="m422.53 476.193-15.025-75.126-25.601-17.067-11.847 7.898 13.753 9.169 15.025 75.126c1.056 5.28-2.983 10.207-8.368 10.207h23.694c5.386 0 9.425-4.926 8.369-10.207z" fill="#ff9e3d"/><path d="m389.631 486.4v-34.133c0-4.268-3.459-7.726-7.726-7.726-4.268 0-7.726 3.459-7.726 7.726v34.133z" fill="#ff9e3d"/><path d="m407.504 401.067c9.426 0 17.067-7.641 17.067-17.067s-7.641-17.067-17.067-17.067h-51.2c-9.426 0-17.067 7.641-17.067 17.067s7.641 17.067 17.067 17.067z" fill="#ffdf40"/><path d="m407.504 366.933h-23.694c9.426 0 17.067 7.641 17.067 17.067s-7.641 17.067-17.067 17.067h23.694c9.426 0 17.067-7.641 17.067-17.067s-7.641-17.067-17.067-17.067z" fill="#ffbe40"/><path d="m381.904 315.733c-4.276 0-8.304 1.054-11.847 2.908 8.172 4.276 13.753 12.83 13.753 22.692 0 9.863-5.58 18.417-13.753 22.692 3.543 1.854 7.571 2.908 11.847 2.908 14.138 0 25.6-11.462 25.6-25.6s-11.461-25.6-25.6-25.6z" fill="#ff9e3d"/></g></g></g></svg>