<svg id="Capa_1" enable-background="new 0 0 512 512" height="512" viewBox="0 0 512 512" width="512" xmlns="http://www.w3.org/2000/svg"><g><g><path d="m125.697 4.999c-6.666-6.666-17.474-6.666-24.14 0l-96.558 96.558c-6.666 6.666-6.666 17.474 0 24.14l381.304 381.304c6.666 6.666 17.473 6.666 24.139 0l96.558-96.558c6.666-6.666 6.666-17.474 0-24.139l-40.314-40.314-9.276-1.579-1.65-9.348-25.283-25.283-8.567-1.995-2.359-8.932-25.283-25.283-8.733-2.91-2.194-8.016-133.91-133.91-7.896-2.449-3.031-8.478-25.283-25.283-8.436-2.989-2.49-7.937-25.283-25.283-8.852-3.78-2.074-7.146z" fill="#ffdf40"/><circle cx="111.201" cy="111.201" fill="#ffbe40" r="17.069"/><g><g><path d="m364.665 444.81c-1.977 0-3.955-.755-5.463-2.263l-96.557-96.557c-3.018-3.017-3.018-7.909 0-10.927 3.017-3.017 7.909-3.017 10.926 0l96.557 96.557c3.018 3.017 3.018 7.91 0 10.927-1.508 1.509-3.485 2.263-5.463 2.263z" fill="#ffbe40"/></g></g><g><g><path d="m171.55 251.695c-1.977 0-3.955-.755-5.463-2.263l-96.558-96.558c-3.018-3.017-3.018-7.91 0-10.927 3.017-3.017 7.909-3.017 10.926 0l96.558 96.558c3.018 3.017 3.018 7.91 0 10.927-1.509 1.508-3.486 2.263-5.463 2.263z" fill="#ffbe40"/></g></g><path d="m507.001 386.303-40.314-40.314-9.276-1.579-1.65-9.348-25.283-25.283-8.567-1.995-2.359-8.932-25.283-25.283-8.733-2.91-2.194-8.016-133.91-133.91-7.896-2.449-3.031-8.478-25.283-25.283-8.436-2.989-2.49-7.937-25.283-25.283-8.852-3.78-2.074-7.146-40.39-40.39c-6.594-6.594-17.235-6.654-23.917-.201.073.07.151.13.223.201l381.304 381.304c6.666 6.666 6.666 17.474 0 24.139l-96.558 96.558c-.072.072-.15.131-.223.201 6.681 6.453 17.322 6.393 23.917-.201l96.558-96.558c6.665-6.664 6.665-17.472 0-24.138z" fill="#ffbe40"/><g fill="#595353"><path d="m166.087 45.389-12.07 12.07c-3.018 3.017-3.018 7.909 0 10.927 1.508 1.509 3.486 2.263 5.463 2.263s3.955-.755 5.463-2.263l12.07-12.069z"/><path d="m202.296 81.598-12.07 12.07c-3.018 3.017-3.018 7.909 0 10.927 1.508 1.509 3.486 2.263 5.463 2.263s3.955-.754 5.463-2.263l12.07-12.07z"/><path d="m238.505 117.807-12.07 12.07c-3.018 3.017-3.018 7.91 0 10.927 1.509 1.508 3.486 2.263 5.463 2.263s3.955-.755 5.463-2.263l12.07-12.07z"/><path d="m383.342 262.644-12.07 12.07c-3.018 3.017-3.018 7.909 0 10.927 1.509 1.509 3.486 2.263 5.463 2.263s3.955-.754 5.463-2.263l12.07-12.07z"/><path d="m419.551 298.854-12.07 12.07c-3.018 3.017-3.018 7.909 0 10.927 1.509 1.508 3.486 2.263 5.463 2.263s3.955-.755 5.463-2.263l12.07-12.07z"/><path d="m455.76 335.063-12.07 12.07c-3.018 3.017-3.018 7.91 0 10.927 1.508 1.509 3.486 2.263 5.463 2.263s3.955-.755 5.463-2.263l12.07-12.07z"/></g></g><g><path d="m30.131 385.387 262.118-262.118 115.614-16.445-19.056 113.003-262.118 262.118z" fill="#8db5ff"/><path d="m126.689 481.945 262.118-262.118 4.892-29.007-279.095 279.039z" fill="#7784ff"/><path d="m345.991 166.084c-3.017-3.017-7.909-3.017-10.926 0l-238.818 238.818c-3.018 3.017-3.018 7.909 0 10.926 1.509 1.509 3.486 2.263 5.463 2.263s3.955-.755 5.463-2.263l238.818-238.818c3.018-3.016 3.018-7.908 0-10.926z" fill="#7784ff"/><path d="m465.601 143.033 36.21-36.21c13.332-13.332 13.332-34.947 0-48.279l-48.279-48.279c-13.332-13.332-34.947-13.332-48.279 0l-36.21 36.21 24.14 72.418z" fill="#f25a3c"/><path d="m501.81 58.545-48.279-48.279c-9.731-9.731-23.872-12.35-35.987-7.876 4.483 1.656 8.691 4.275 12.293 7.876l48.279 48.279c13.332 13.332 13.332 34.947 0 48.279l-30.286 30.286 17.771 5.924 36.21-36.21c13.331-13.332 13.331-34.947-.001-48.279z" fill="#e63a3a"/><path d="m407.863 106.824-62.959-36.21-52.655 52.655 96.558 96.558 52.655-52.655z" fill="#cfd7e6"/><g fill="#b4c2db"><path d="m432.84 151.686-56.092 56.081 12.059 12.06 52.655-52.655z"/><path d="m363.58 89.291-52.65 52.649c-.002.002-.003.003-.004.005l10.926 10.926.005-.005 52.65-52.649c3.018-3.017 3.018-7.909 0-10.926-3.017-3.018-7.91-3.018-10.927 0z"/><path d="m345.992 177.011 52.654-52.654c3.018-3.017 3.018-7.909 0-10.926-3.017-3.017-7.91-3.017-10.927 0l-52.654 52.654z"/><path d="m422.785 137.569c-3.017-3.017-7.91-3.017-10.927 0l-52.654 52.654 10.927 10.926 52.654-52.654c3.018-3.016 3.018-7.909 0-10.926z"/></g><path d="m369.043 46.475c-6.666-6.666-17.473-6.666-24.139 0s-6.666 17.474 0 24.139l96.558 96.558c6.666 6.666 17.474 6.666 24.139 0 6.666-6.666 6.666-17.474 0-24.14z" fill="#f3f5f9"/><path d="m465.601 143.033-96.558-96.558c-6.594-6.594-17.236-6.654-23.917-.201.072.07.151.13.223.201l96.558 96.558c6.666 6.666 6.666 17.474 0 24.14-.072.071-.15.131-.223.201 6.681 6.453 17.322 6.393 23.917-.201 6.666-6.667 6.666-17.474 0-24.14z" fill="#cfd7e6"/><path d="m59.395 491.303 62.201-6.911c1.926-.214 3.722-1.077 5.092-2.448l-22.923-68.261c-.851-2.534-2.84-4.523-5.374-5.374l-68.261-22.923c-1.37 1.37-2.234 3.166-2.448 5.092l-6.911 62.201 8.367 29.264z" fill="#ffd9b3"/><path d="m97.423 484.392-44.416 4.935 6.389 1.976 62.201-6.911c1.926-.214 3.722-1.077 5.092-2.448l-6.076-18.094-18.097 18.094c-1.371 1.371-3.167 2.234-5.093 2.448z" fill="#fb9"/><path d="m20.773 452.68-3.65 32.848c-.604 5.436 3.989 10.029 9.425 9.425l32.848-3.65z" fill="#595353"/><path d="m26.548 494.953 32.848-3.65-2.417-2.417-36.876 4.097c1.71 1.448 3.988 2.243 6.445 1.97z" fill="#403939"/></g></g></svg>