<svg id="Capa_1" enable-background="new 0 0 512 512" height="512" viewBox="0 0 512 512" width="512" xmlns="http://www.w3.org/2000/svg"><g><path d="m415.065 55v442c0 8.28-6.72 15-15 15h-385c-8.28 0-15-6.72-15-15v-442c0-8.28 6.72-15 15-15h385c8.28 0 15 6.72 15 15z" fill="#edf5ff"/><path d="m415.065 55v442c0 8.28-6.72 15-15 15h-192v-472h192c8.28 0 15 6.72 15 15z" fill="#d5e8fe"/><path d="m335.065 160v112c0 8.28-6.72 15-15 15h-224c-8.28 0-15-6.72-15-15v-112c0-8.28 6.72-15 15-15h224c8.28 0 15 6.72 15 15z" fill="#d5e8fe"/><path d="m335.065 160v112c0 8.28-6.72 15-15 15h-112v-142h112c8.28 0 15 6.72 15 15z" fill="#b5dbff"/><path d="m335.065 416c0 8.28-6.72 15-15 15h-224c-8.28 0-15-6.72-15-15s6.72-15 15-15h224c8.28 0 15 6.72 15 15z" fill="#5f55af"/><path d="m335.065 416c0 8.28-6.72 15-15 15h-112v-30h112c8.28 0 15 6.72 15 15z" fill="#453d83"/><path d="m221.73 359h-125.665c-8.284 0-15-6.716-15-15s6.716-15 15-15h125.665c8.284 0 15 6.716 15 15s-6.716 15-15 15z" fill="#5f55af"/><path d="m271.065 110c-8.284 0-15-6.716-15-15v-80c0-8.284 6.716-15 15-15s15 6.716 15 15v80c0 8.284-6.716 15-15 15z" fill="#453d83"/><path d="m335.065 110c-8.284 0-15-6.716-15-15v-80c0-8.284 6.716-15 15-15s15 6.716 15 15v80c0 8.284-6.716 15-15 15z" fill="#453d83"/><path d="m223.065 15v80c0 8.28-6.72 15-15 15s-15-6.72-15-15v-80c0-8.28 6.72-15 15-15s15 6.72 15 15z" fill="#5f55af"/><path d="m223.065 15v80c0 8.28-6.72 15-15 15v-110c8.28 0 15 6.72 15 15z" fill="#453d83"/><path d="m143.065 110c-8.284 0-15-6.716-15-15v-80c0-8.284 6.716-15 15-15s15 6.716 15 15v80c0 8.284-6.716 15-15 15z" fill="#5f55af"/><path d="m79.065 110c-8.284 0-15-6.716-15-15v-80c0-8.284 6.716-15 15-15s15 6.716 15 15v80c0 8.284-6.716 15-15 15z" fill="#5f55af"/><path d="m462.045 235.62-252.56 117.05c-2.81-3.97-3.52-9.05-1.91-13.64l19.81-56.36c1.03-2.94 2.95-5.48 5.49-7.28l171.56-121.36c3.24-2.29 7.27-3.21 11.19-2.53 3.93.67 7.42 2.87 9.72 6.12l20.17 28.52z" fill="#fed843"/><path d="m468.225 225.9c-.69 3.93-2.91 7.43-6.18 9.72l-172.33 120.67c-2.52 1.76-5.52 2.71-8.6 2.71h-59.39c-3.26 0-6.38-1.06-8.94-2.96-1.26-.92-2.38-2.06-3.3-3.37l236.03-166.53 20.18 28.53c2.3 3.26 3.21 7.3 2.53 11.23z" fill="#ff9100"/><path d="m511.935 174.62c0 16.23-7.9 31.51-21.14 40.87l-28.75 20.13-28.81-40.81-28.8-40.78 28.59-20.22c10.9-7.71 24.17-10.72 37.33-8.46 13.17 2.25 24.68 9.5 32.4 20.41 6 8.49 9.18 18.47 9.18 28.86z" fill="#ff7b4a"/><path d="m511.935 174.62c0 16.23-7.9 31.51-21.14 40.87l-28.75 20.13-28.81-40.81 69.52-49.05c6 8.49 9.18 18.47 9.18 28.86z" fill="#e63950"/></g></svg>