<svg id="Capa_1" enable-background="new 0 0 512 512" height="512" viewBox="0 0 512 512" width="512" xmlns="http://www.w3.org/2000/svg"><g><g><g><path d="m78.648 111.85-23.329 26.314c-2.768 3.122-4.296 7.15-4.296 11.322v97.93h-34.134v-104.407c0-8.344 3.057-16.4 8.592-22.644l28.987-32.695 16.958 4.703z" fill="#cfd7e6"/></g><g><path d="m189.02 101.542c13.33 13.33 13.33 34.942 0 48.272s-34.942 13.33-48.272 0l17.924-53.75z" fill="#ffdf40"/><path d="m189.02 101.542-30.348-5.478-1.322 3.963 8.391 1.515c13.33 13.33 13.33 34.942 0 48.272-3.656 3.656-7.937 6.302-12.497 7.953 12.067 4.368 26.101 1.721 35.775-7.953 13.331-13.33 13.331-34.942.001-48.272z" fill="#ffbe40"/><path d="m92.476 125.678-48.272-48.271c-6.665-6.665-6.665-17.471 0-24.136l48.272-48.272c6.665-6.665 17.471-6.665 24.136 0l48.272 48.272-26.489 50.778z" fill="#8db5ff"/><path d="m213.156 53.271c-13.33-13.33-34.942-13.33-48.272 0l-72.408 72.408c-13.33 13.33-13.33 34.942 0 48.272l6.034 6.034c3.332 3.332 8.736 3.332 12.068 0l108.612-108.612c3.333-3.333 3.333-8.736 0-12.068z" fill="#7784ff"/><path d="m219.19 59.305-6.034-6.034c-9.73-9.73-23.87-12.349-35.983-7.875 4.482 1.656 8.689 4.274 12.289 7.875l6.034 6.034c3.332 3.333 3.332 8.735 0 12.068l-102.799 102.798 5.813 5.813c3.333 3.332 8.736 3.332 12.068 0l108.612-108.611c3.332-3.333 3.332-8.736 0-12.068z" fill="#6270f0"/></g></g><path d="m341.333 247.415h-153.6v-61.815c0-17.673 14.327-32 32-32h89.6c17.673 0 32 14.327 32 32z" fill="#68d9c0"/><path d="m308.367 153.6h-23.694c18.207 0 32.966 14.759 32.966 32.966v60.849h23.694v-60.849c0-18.207-14.759-32.966-32.966-32.966z" fill="#4fc6b9"/><g fill="#d3dcfb"><path d="m195.975 480.451v-2.584c-4.551 0-8.241-3.69-8.241-8.241v-47.079h34.133v47.079c0 4.551-3.69 8.241-8.241 8.241v2.584z"/><path d="m315.441 480.451v-2.584c-4.552 0-8.241-3.69-8.241-8.241v-47.079h34.133v47.079c0 4.551-3.69 8.241-8.241 8.241v2.584z"/></g><g><path d="m61.296 258.576h389.408v168.091h-389.408z" fill="#995a4d"/><g><path d="m417.84 173.586v-2.919h-34.132c-4.552 0-8.241-3.69-8.241-8.241v-17.65c0-4.552 3.69-8.242 8.241-8.242h85.917c4.551 0 8.241 3.69 8.241 8.242v17.65c0 4.551-3.69 8.241-8.241 8.241v2.919z" fill="#68d9c0"/><path d="m469.625 136.533h-23.694c4.552 0 8.241 3.69 8.241 8.242v17.65c0 4.552-3.69 8.241-8.241 8.241h23.694c4.551 0 8.241-3.69 8.241-8.241v-17.65c.001-4.552-3.689-8.242-8.241-8.242z" fill="#4fc6b9"/><path d="m400.775 240.676v-1.743c-4.552 0-8.242-3.69-8.242-8.241v-17.65c0-4.552 3.69-8.241 8.242-8.241h17.066v-3.271h68.851v3.271c4.552 0 8.241 3.69 8.241 8.241v17.65c0 4.552-3.69 8.241-8.241 8.241v1.743z" fill="#f25a3c"/><path d="m486.692 204.8h-23.694c4.552 0 8.241 3.69 8.241 8.241v17.65c0 4.552-3.69 8.241-8.241 8.241h23.694c4.552 0 8.241-3.69 8.241-8.241v-17.65c0-4.551-3.69-8.241-8.241-8.241z" fill="#e63a3a"/><path d="m504 204.8h-86.4c-4.418 0-8-3.582-8-8v-18.133c0-4.418 3.582-8 8-8h86.4c4.418 0 8 3.582 8 8v18.133c0 4.418-3.582 8-8 8z" fill="#8db5ff"/><path d="m503.759 170.667h-23.694c4.552 0 8.241 3.69 8.241 8.242v17.65c0 4.552-3.69 8.241-8.241 8.241h23.694c4.551 0 8.241-3.69 8.241-8.241v-17.65c0-4.552-3.69-8.242-8.241-8.242z" fill="#7784ff"/></g><path d="m451.975 485.387v-7.52c-4.552 0-8.241-3.69-8.241-8.241v-202.466h51.2v202.465c0 4.551-3.69 8.241-8.241 8.241v7.52h-34.718z" fill="#f3f5f9"/><path d="m471.239 267.16v202.465c0 4.552-3.69 8.241-8.241 8.241h23.694c4.552 0 8.241-3.69 8.241-8.241v-202.465z" fill="#d3dcfb"/><path d="m25.308 485.387v-7.52c-4.552 0-8.241-3.69-8.241-8.241v-202.466h51.2v202.465c0 4.551-3.69 8.241-8.242 8.241v7.52h-34.717z" fill="#f3f5f9"/><path d="m44.572 267.16v202.465c0 4.552-3.69 8.241-8.241 8.241h23.694c4.552 0 8.242-3.69 8.242-8.241v-202.465z" fill="#d3dcfb"/><path d="m504 273.067h-496c-4.418 0-8-3.582-8-8v-18.133c0-4.418 3.582-8 8-8h496c4.418 0 8 3.582 8 8v18.133c0 4.418-3.582 8-8 8z" fill="#b37059"/><path d="m503.759 238.933h-23.694c4.552 0 8.241 3.69 8.241 8.242v17.651c0 4.551-3.69 8.241-8.241 8.241h23.694c4.551 0 8.241-3.69 8.241-8.241v-17.651c0-4.552-3.69-8.242-8.241-8.242z" fill="#995a4d"/></g><path d="m504 477.867h-496c-4.418 0-8 3.582-8 8v18.133c0 4.418 3.582 8 8 8h496c4.418 0 8-3.582 8-8v-18.133c0-4.419-3.582-8-8-8z" fill="#8db5ff"/><path d="m324.8 358.4h-137.6c-4.418 0-8-3.582-8-8v-35.2c0-4.418 3.582-8 8-8h137.6c4.418 0 8 3.582 8 8v35.2c0 4.418-3.582 8-8 8z" fill="#ffdf40"/><path d="m503.759 477.867h-23.694c4.552 0 8.241 3.69 8.241 8.241v17.651c0 4.552-3.69 8.241-8.241 8.241h23.694c4.551 0 8.241-3.69 8.241-8.241v-17.651c0-4.552-3.69-8.241-8.241-8.241z" fill="#7784ff"/><path d="m324.559 307.2h-23.694c4.552 0 8.241 3.69 8.241 8.242v34.717c0 4.552-3.69 8.241-8.241 8.241h23.694c4.552 0 8.241-3.69 8.241-8.241v-34.717c0-4.552-3.69-8.242-8.241-8.242z" fill="#ffbe40"/></g></svg>