<svg id="Capa_1" enable-background="new 0 0 512 512" height="512" viewBox="0 0 512 512" width="512" xmlns="http://www.w3.org/2000/svg"><g><path d="m51.2 119.466c-18.851 0-34.132 15.282-34.132 34.132l-.001 311.528h477.868l-.002-311.528c0-18.851-15.282-34.132-34.132-34.132z" fill="#cfd7e6"/><path d="m51.199 465.126v-294.46c0-9.426 7.641-17.067 17.067-17.067h375.47c9.426 0 17.067 7.641 17.067 17.067v294.46z" fill="#8db5ff"/><path d="m494.933 153.598c0-18.851-15.282-34.132-34.132-34.132h-23.694c18.851 0 34.132 15.282 34.132 34.132l.002 311.528h23.694z" fill="#b4c2db"/><path d="m443.735 153.6h-23.696c9.426 0 17.067 7.641 17.067 17.067v294.46h23.696v-294.46c0-9.426-7.641-17.067-17.067-17.067z" fill="#7784ff"/><path d="m85.334 448.733v-431.666c0-9.426 7.641-17.067 17.066-17.067h307.2c9.426 0 17.067 7.641 17.067 17.067v102.399l-9.14 17.533 9.14 16.601v295.132h-341.333z" fill="#f3f5f9"/><path d="m409.6 0h-23.694c9.426 0 17.067 7.641 17.067 17.067v431.666h23.694v-431.666c-.001-9.426-7.642-17.067-17.067-17.067z" fill="#d3dcfb"/><path d="m297.207 204.8h-169.207c-4.713 0-8.533-3.82-8.533-8.533v-17.067c0-4.713 3.82-8.533 8.533-8.533h169.207z" fill="#736b6b"/><path d="m315.733 68.266h-119.466c-4.713 0-8.533-3.82-8.533-8.533v-17.066c0-4.713 3.821-8.533 8.533-8.533h119.466c4.713 0 8.533 3.82 8.533 8.533v17.067c.001 4.712-3.82 8.532-8.533 8.532z" fill="#8db5ff"/><path d="m315.733 307.199c4.713 0 8.533 3.82 8.533 8.533v17.067c0 4.713-3.821 8.533-8.533 8.533h-187.733c-4.713 0-8.533-3.82-8.533-8.533v-17.067c0-4.713 3.82-8.533 8.533-8.533z" fill="#736b6b"/><g fill="#68d9c0"><path d="m179.492 231.206h-17.65c-8.805 0-15.968 7.163-15.968 15.968v17.65c0 8.805 7.163 15.968 15.968 15.968h17.65c8.805 0 15.968-7.163 15.968-15.968v-17.65c0-8.805-7.163-15.968-15.968-15.968zm.515 33.618c0 .284-.231.515-.515.515h-17.65c-.284 0-.515-.231-.515-.515v-17.65c0-.284.231-.515.515-.515h17.65c.284 0 .515.231.515.515z"/><path d="m350.158 231.206h-17.65c-8.805 0-15.968 7.163-15.968 15.968v17.65c0 8.805 7.163 15.968 15.968 15.968h17.65c8.805 0 15.968-7.163 15.968-15.968v-17.65c0-8.805-7.163-15.968-15.968-15.968zm.515 33.618c0 .284-.231.515-.515.515h-17.65c-.284 0-.515-.231-.515-.515v-17.65c0-.284.231-.515.515-.515h17.65c.284 0 .515.231.515.515z"/><path d="m264.825 367.74h-17.65c-8.805 0-15.968 7.163-15.968 15.968v17.65c0 8.805 7.163 15.968 15.968 15.968h17.65c8.805 0 15.968-7.163 15.968-15.968v-17.65c0-8.806-7.163-15.968-15.968-15.968zm.515 33.618c0 .284-.231.515-.515.515h-17.65c-.284 0-.515-.231-.515-.515v-17.65c0-.284.231-.515.515-.515h17.65c.284 0 .515.231.515.515z"/><path d="m179.492 367.74h-17.65c-8.805 0-15.968 7.163-15.968 15.968v17.65c0 8.805 7.163 15.968 15.968 15.968h17.65c8.805 0 15.968-7.163 15.968-15.968v-17.65c0-8.806-7.163-15.968-15.968-15.968zm.515 33.618c0 .284-.231.515-.515.515h-17.65c-.284 0-.515-.231-.515-.515v-17.65c0-.284.231-.515.515-.515h17.65c.284 0 .515.231.515.515z"/><path d="m350.158 367.74h-17.65c-8.805 0-15.968 7.163-15.968 15.968v17.65c0 8.805 7.163 15.968 15.968 15.968h17.65c8.805 0 15.968-7.163 15.968-15.968v-17.65c0-8.806-7.163-15.968-15.968-15.968zm.515 33.618c0 .284-.231.515-.515.515h-17.65c-.284 0-.515-.231-.515-.515v-17.65c0-.284.231-.515.515-.515h17.65c.284 0 .515.231.515.515z"/></g><path d="m315.733 34.133h-23.694c4.713 0 8.533 3.82 8.533 8.533v17.067c0 4.713-3.82 8.533-8.533 8.533h23.694c4.713 0 8.533-3.82 8.533-8.533v-17.066c.001-4.713-3.82-8.534-8.533-8.534z" fill="#7784ff"/><path d="m315.733 307.199h-23.694c4.713 0 8.533 3.82 8.533 8.533v17.067c0 4.713-3.82 8.533-8.533 8.533h23.694c4.713 0 8.533-3.82 8.533-8.533v-17.067c.001-4.712-3.82-8.533-8.533-8.533z" fill="#595353"/><g><path d="m190.193 274.221c.705-1.159 1.548-2.235 2.514-3.201l200.684-200.684 36.203 12.069 12.069 36.203-200.684 200.684c-.966.966-2.041 1.809-3.2 2.514z" fill="#ffdf40"/><path d="m433.284 93.471-209.063 209.063c-.966.966-2.041 1.809-3.2 2.514l-30.828-30.827 47.586 47.585c1.159-.705 2.234-1.548 3.2-2.514l200.684-200.684z" fill="#ffbe40"/><path d="m421.399 79.673-212.877 212.877 10.927 10.927 212.877-212.877-2.731-8.195z" fill="#8db5ff"/><path d="m465.798 94.473 24.136-24.136c6.665-6.665 6.665-17.471 0-24.136l-24.136-24.136c-6.665-6.665-17.471-6.665-24.136 0l-24.136 24.136 12.068 36.204z" fill="#f25a3c"/><path d="m395.461 65.338h68.267v34.133h-68.267z" fill="#f3f5f9" transform="matrix(.707 .707 -.707 .707 184.095 -279.633)"/><path d="m489.934 46.201-16.758-16.758c6.665 6.665 6.665 17.471 0 24.136l-32.515 32.515 25.137 8.379 24.136-24.136c6.665-6.665 6.665-17.471 0-24.136z" fill="#e63a3a"/><path d="m428.285 86.312h34.133v23.7h-34.133z" fill="#cfd7e6" transform="matrix(.707 -.707 .707 .707 61.03 343.662)"/><path d="m213.113 330.48 21.195-7.065c1.221-.407 2.386-.955 3.478-1.62l-10.425-31.884c-.816-2.497-2.775-4.456-5.272-5.272l-31.879-10.424h-.013c-.664 1.091-1.206 2.257-1.613 3.477l-7.065 21.195 12.549 19.042z" fill="#ffd9b3"/><path d="m227.361 289.91c-.816-2.497-2.775-4.456-5.272-5.272l-8.652-2.829 7.596 23.233c-1.092.665-2.256 1.213-3.478 1.62l-21.195 7.065-8.947-5.896 6.654 10.098 19.046 12.551 21.195-7.065c1.221-.407 2.386-.955 3.478-1.62z" fill="#fb9"/><path d="m181.52 298.886-10.4 31.201c-2.224 6.671 4.123 13.017 10.794 10.794l31.201-10.4z" fill="#736b6b"/><path d="m196.359 313.725-22.258 7.419-2.981 8.942c-2.224 6.671 4.123 13.017 10.794 10.794l31.201-10.4z" fill="#595353"/></g><path d="m.002 460.798v17.07c0 18.85 15.281 34.132 34.132 34.132h443.732c18.851 0 34.132-15.282 34.132-34.132v-17.07c0-9.426-7.641-17.067-17.067-17.067h-477.863c-9.425 0-17.066 7.641-17.066 17.067z" fill="#f3f5f9"/><g fill="#cfd7e6"><path d="m494.932 443.731h-23.778c9.426 0 17.067 7.641 17.067 17.067v17.07c0 18.851-15.282 34.132-34.132 34.132h23.778c18.851 0 34.132-15.282 34.132-34.132v-17.07c-.001-9.426-7.642-17.067-17.067-17.067z"/><path d="m299.256 443.731-4.852 19.333c-1.042 4.165-4.768 7.075-9.062 7.075h-58.683c-4.294 0-8.02-2.909-9.059-7.068l-4.815-19.341h-15.925l5.746 23.081c2.764 11.057 12.655 18.78 24.052 18.78h58.683c11.398 0 21.289-7.723 24.051-18.773l5.795-23.088h-15.931z"/></g></g></svg>