<svg id="Capa_1" enable-background="new 0 0 497 497" height="512" viewBox="0 0 497 497" width="512" xmlns="http://www.w3.org/2000/svg"><g><path d="m440.487 168.054h-403.973c-20.166 0-36.514 16.348-36.514 36.514v156.53c0 20.166 16.348 36.514 36.514 36.514h403.973c20.166 0 36.513-16.348 36.513-36.514v-156.53c0-20.166-16.348-36.514-36.513-36.514z" fill="#9dc6fb"/><path d="m460.487 168.054h-31c20.166 0 36.513 16.348 36.513 36.514v156.53c0 20.166-16.348 36.514-36.513 36.514h31c20.166 0 36.513-16.348 36.513-36.514v-156.53c0-20.166-16.348-36.514-36.513-36.514z" fill="#80b4fb"/><path d="m407.484 87.1c-1.63-1.63-2.099-4.267-4.108-5.082-6.029-2.445-13.197-1.222-18.087 3.667l-27.618 27.618 22.196 22.195 27.618-27.618c6.519-6.519 6.519-14.261-.001-20.78z" fill="#9dc6fb"/><path d="m408.898 85.686c-1.63-1.63-3.514-2.853-5.525-3.668 2.444 6.029 1.221 13.196-3.668 18.085l-27.618 27.618 9.192 9.192 27.618-27.618c6.521-6.519 6.521-17.09.001-23.609z" fill="#80b4fb"/><path d="m382.797 124.288-19.573-19.573c-3.44-3.439-9.016-3.439-12.456 0l-102.053 102.055h64.056l70.026-70.026c3.44-3.439 3.44-9.016 0-12.456z" fill="#89828d"/><path d="m389.868 131.36-14.142-14.142c3.439 3.439 3.439 9.016 0 12.455l-77.097 77.097h15.856l3.75-5.465 45.079-30.937 26.553-26.553c3.441-3.439 3.441-9.016.001-12.455z" fill="#746f78"/><path d="m311.424 206.77 44.146-44.146-31.354-31.355-75.501 75.501z" fill="#f9d065"/><path d="m326.913 206.77 36.402-36.402-14.247-14.246-50.647 50.648z" fill="#f5b84c"/><path d="m311.447 62.024-33.678-33.679c-3.631-3.631-9.518-3.631-13.149 0l-24.532 24.532-1.695 3.11-8.911 7.497-46.974 46.974-2.22 3.634-8.386 6.972-46.974 46.974-2.528 3.943-8.078 6.664-28.127 28.125h93.656l131.596-131.597c3.631-3.631 3.631-9.518 0-13.149z" fill="#f9d065"/><path d="m324.882 75.459-19.8-19.799c3.631 3.631 3.631 9.518 0 13.149l-137.96 137.96h39.598l118.162-118.16c3.631-3.632 3.631-9.519 0-13.15z" fill="#f5b84c"/><path d="m442.487 241.821h-405.973c-20.166 0-36.514 16.348-36.514 36.514v156.53c0 20.166 16.348 36.513 36.514 36.513h405.973c20.166 0 36.513-16.348 36.513-36.513v-156.53c0-20.166-16.348-36.514-36.513-36.514z" fill="#f9d065"/><path d="m460.487 241.821h-31c20.166 0 36.513 16.348 36.513 36.514v156.53c0 20.166-16.348 36.513-36.513 36.513h31c20.166 0 36.513-16.348 36.513-36.513v-156.53c0-20.166-16.348-36.514-36.513-36.514z" fill="#f5b84c"/><path d="m147.384 397.611h-92.063c-9.691 0-17.547 7.856-17.547 17.548 0 9.691 7.856 17.548 17.547 17.548h92.064c9.691 0 17.548-7.856 17.548-17.548-.001-9.692-7.857-17.548-17.549-17.548z" fill="#f2fdff"/><path d="m392.812 345.358h-300.244c-30.653 0-55.502-24.849-55.502-55.502 0-3.879 3.145-7.024 7.024-7.024h397.2c3.879 0 7.024 3.145 7.024 7.024 0 30.654-24.849 55.502-55.502 55.502z" fill="#ed6479"/><path d="m451.29 282.833h-30c3.879 0 7.024 3.145 7.024 7.024 0 30.653-24.849 55.502-55.502 55.502h30c30.653 0 55.502-24.849 55.502-55.502 0-3.88-3.145-7.024-7.024-7.024z" fill="#d65461"/><g fill="#89828d"><path d="m229.48 63.484 12.758 12.758c2.929 2.929 7.678 2.929 10.607 0s2.929-7.677 0-10.607l-12.758-12.758z"/><path d="m171.899 121.065 12.758 12.758c2.929 2.929 7.678 2.929 10.607 0s2.929-7.677 0-10.607l-12.758-12.758z"/><path d="m114.319 178.645 12.758 12.758c2.929 2.929 7.678 2.929 10.607 0s2.929-7.677 0-10.607l-12.758-12.758z"/></g><g><path d="m439.907 214.27h-384.433c-4.142 0-7.5-3.358-7.5-7.5s3.358-7.5 7.5-7.5h384.434c4.143 0 7.5 3.358 7.5 7.5-.001 4.142-3.358 7.5-7.501 7.5z" fill="#f2fdff"/></g></g></svg>