<svg id="Flat" height="512" viewBox="0 0 512 512" width="512" xmlns="http://www.w3.org/2000/svg"><path d="m256 480a8 8 0 0 1 -8-8v-432a8 8 0 0 1 16 0v432a8 8 0 0 1 -8 8z" fill="#7e8589"/><path d="m472 264h-432a8 8 0 0 1 0-16h432a8 8 0 0 1 0 16z" fill="#7e8589"/><g fill="#6a7073"><path d="m272 168h-32a8 8 0 0 1 0-16h32a8 8 0 0 1 0 16z"/><path d="m272 216h-32a8 8 0 0 1 0-16h32a8 8 0 0 1 0 16z"/><path d="m272 120h-32a8 8 0 0 1 0-16h32a8 8 0 0 1 0 16z"/><path d="m352 280a8 8 0 0 1 -8-8v-32a8 8 0 0 1 16 0v32a8 8 0 0 1 -8 8z"/><path d="m304 280a8 8 0 0 1 -8-8v-32a8 8 0 0 1 16 0v32a8 8 0 0 1 -8 8z"/><path d="m400 280a8 8 0 0 1 -8-8v-32a8 8 0 0 1 16 0v32a8 8 0 0 1 -8 8z"/><path d="m160 280a8 8 0 0 1 -8-8v-32a8 8 0 0 1 16 0v32a8 8 0 0 1 -8 8z"/><path d="m112 280a8 8 0 0 1 -8-8v-32a8 8 0 0 1 16 0v32a8 8 0 0 1 -8 8z"/><path d="m208 280a8 8 0 0 1 -8-8v-32a8 8 0 0 1 16 0v32a8 8 0 0 1 -8 8z"/><path d="m272 360h-32a8 8 0 0 1 0-16h32a8 8 0 0 1 0 16z"/><path d="m272 408h-32a8 8 0 0 1 0-16h32a8 8 0 0 1 0 16z"/><path d="m272 312h-32a8 8 0 0 1 0-16h32a8 8 0 0 1 0 16z"/></g><path d="m112 216a8 8 0 0 1 0-16 88.1 88.1 0 0 0 88-88 8 8 0 0 1 16 0 104.118 104.118 0 0 1 -104 104z" fill="#b1bd70"/><path d="m304 408a8 8 0 0 1 -8-8 104.118 104.118 0 0 1 104-104 8 8 0 0 1 0 16 88.1 88.1 0 0 0 -88 88 8 8 0 0 1 -8 8z" fill="#f7b030"/><path d="m272.006 64a8 8 0 0 1 -7.161-4.424l-8.845-17.687-8.845 17.689a8 8 0 0 1 -14.31-7.156l16-32a8 8 0 0 1 14.31 0l16 32a8 8 0 0 1 -7.149 11.578z" fill="#6a7073"/><path d="m456.006 280a8 8 0 0 1 -3.584-15.157l17.689-8.843-17.689-8.845a8 8 0 0 1 7.156-14.31l32 16a8 8 0 0 1 0 14.31l-32 16a7.973 7.973 0 0 1 -3.572.845z" fill="#6a7073"/><path d="m256 496a8 8 0 0 1 -7.155-4.422l-16-32a8 8 0 0 1 14.31-7.156l8.845 17.689 8.845-17.689a8 8 0 1 1 14.31 7.156l-16 32a8 8 0 0 1 -7.155 4.422z" fill="#6a7073"/><path d="m55.994 280a7.973 7.973 0 0 1 -3.572-.847l-32-16a8 8 0 0 1 0-14.31l32-16a8 8 0 0 1 7.156 14.31l-17.689 8.847 17.689 8.845a8 8 0 0 1 -3.584 15.155z" fill="#6a7073"/></svg>