<svg id="Flat" height="512" viewBox="0 0 512 512" width="512" xmlns="http://www.w3.org/2000/svg"><path d="m304 232v64h-32v80h128v-144z" fill="#e9eef2"/><path d="m304 232h96v32h-96z" fill="#9aa3a8"/><path d="m112 456h32v32h-32z" fill="#7e8589"/><path d="m368 456h32v32h-32z" fill="#7e8589"/><path d="m184 24h32v64h-32z" fill="#6a7073" transform="matrix(-1 0 0 -1 400 112)"/><path d="m119.029 40.402h33.941v79.196h-33.941z" fill="#6a7073" transform="matrix(.707 -.707 .707 .707 -16.735 119.598)"/><path d="m184 24h32v32h-32z" fill="#7e8589"/><path d="m103.029 47.029h33.941v33.941h-33.941z" fill="#7e8589" transform="matrix(.707 -.707 .707 .707 -10.108 103.598)"/><path d="m128 152h128v-64h-72l-56 56z" fill="#e9eef2"/><path d="m224 88h32v64h-32z" fill="#d0d2d4"/><path d="m184 184h32v48h-32z" fill="#7e8589" transform="matrix(-1 0 0 -1 400 416)"/><path d="m115.716 175.029h56.569v33.941h-56.569z" fill="#7e8589" transform="matrix(.707 -.707 .707 .707 -93.588 158.059)"/><path d="m224 152v32h-48l-32-32z" fill="#d0d2d4"/><circle cx="352" cy="328" fill="#6a7073" r="16"/><circle cx="304" cy="328" fill="#d0d2d4" r="8"/><path d="m128 264h176v32h-176z" fill="#7e8589"/><path d="m208 328h-16a32 32 0 0 1 -32-32h80a32 32 0 0 1 -32 32z" fill="#6a7073"/><path d="m296 96h-40v48h32l40 56v32h48v-32z" fill="#e9eef2"/><path d="m400 376h-288l-32 32v48h352v-48z" fill="#e9eef2"/><path d="m432 408h-352l32-32h288z" fill="#d0d2d4"/></svg>