<svg id="Flat" height="512" viewBox="0 0 512 512" width="512" xmlns="http://www.w3.org/2000/svg"><path d="m440 280h-112a8 8 0 0 1 0-16h112a8 8 0 0 1 0 16z" fill="#dadcde"/><path d="m216 88h-80a8 8 0 0 1 0-16h80a8 8 0 0 1 0 16z" fill="#dadcde"/><circle cx="416" cy="432" fill="#f7b030" r="40"/><path d="m288 328 24-24 84.686 84.686a16 16 0 0 1 0 22.628l-1.372 1.372a16 16 0 0 1 -22.628 0z" fill="#e9eef2"/><path d="m96 352-8-32 104-32 8 32z" fill="#e9eef2"/><circle cx="64" cy="344" fill="#f7b030" r="40"/><circle cx="256" cy="272" fill="#3397e8" r="72"/><circle cx="464" cy="272" fill="#eb423f" r="24"/><path d="m256 240a16 16 0 0 1 -16-16v-112h32v112a16 16 0 0 1 -16 16z" fill="#e9eef2"/><circle cx="256" cy="80" fill="#f7b030" r="40"/><circle cx="112" cy="80" fill="#eb423f" r="24"/></svg>