<svg id="Capa_1" enable-background="new 0 0 512 512" height="512" viewBox="0 0 512 512" width="512" xmlns="http://www.w3.org/2000/svg" xmlns:xlink="http://www.w3.org/1999/xlink"><linearGradient id="SVGID_1_" gradientUnits="userSpaceOnUse" x1="53.976" x2="458.024" y1="256" y2="256"><stop offset=".0485" stop-color="#d2deff"/><stop offset=".9993" stop-color="#dcfdee"/></linearGradient><linearGradient id="SVGID_2_" gradientUnits="userSpaceOnUse" x1="266.274" x2="266.274" y1="160.997" y2="459.189"><stop offset=".0028" stop-color="#ff7eb8" stop-opacity="0"/><stop offset="1" stop-color="#ff7eb8" stop-opacity=".6"/></linearGradient><g><g><path d="m170.091.39c-68.06 4.435-134.218 61.127-111.591 135.073 18.265 59.691 84.702 87.73 134.671 115.676 47.928 26.805 98.6 60.229 112.037 117.192 9.247 39.199-2.084 84.916 22.012 117.187 42.331 56.694 124.077 13.634 130.314-47.258 5.176-50.542-31.51-94.701-65.828-132.165-33.267-36.317-70.462-71.374-99.992-110.843-27.345-36.55-41.639-81.985-5.379-118.188 8.145-8.132 17.848-16.505 14.872-29.734-9.77-43.394-97.817-49.109-131.116-46.94z" fill="url(#SVGID_1_)"/></g><g><g><g><path d="m408.8 412.678-78.329-118.823c-9.968-15.121-15.28-32.833-15.28-50.943v-81.914h-97.834v81.914c0 18.11-5.313 35.823-15.28 50.943l-78.329 118.823c-13.149 19.947 1.157 46.511 25.047 46.511h234.958c23.891 0 38.196-26.565 25.047-46.511z" fill="#d2deff"/><path d="m217.357 160.997h97.834v41.424h-97.834z" fill="#b7c5ff"/><g><path d="m271.274 146.673v233.39c0 2.761-2.239 5-5 5-2.761 0-5-2.239-5-5v-233.39z" fill="#ff7eb8"/></g><path d="m261.274 160.993h10v41.43h-10z" fill="#ff5ba8"/><path d="m383.754 459.193h-234.96c-23.89 0-38.2-26.57-25.05-46.52l40.41-61.3h204.24l40.41 61.3c13.15 19.95-1.16 46.52-25.05 46.52z" fill="#8399fe"/><g><path d="m336.514 161.733c0 4.16-1.68 7.93-4.41 10.65s-6.49 4.41-10.65 4.41h-110.36c-8.32 0-15.06-6.74-15.06-15.06 0-4.16 1.68-7.93 4.41-10.65s6.49-4.41 10.65-4.41h110.36c8.32 0 15.06 6.74 15.06 15.06z" fill="#d2deff"/><g><path d="m261.274 146.673h10v30.12h-10z" fill="#ff7eb8"/></g></g><g><path d="m232.362 45.125c-22.431-9.402-47.528-2.909-62.789 14.351-1.605 22.983 11.356 45.444 33.787 54.846 22.417 9.396 47.519 2.888 62.781-14.371 1.605-22.984-11.362-45.431-33.779-54.826z" fill="#02ffb3"/><g><g><path d="m300.186 45.125c22.431-9.402 47.528-2.909 62.789 14.351 1.605 22.983-11.356 45.444-33.787 54.846-22.417 9.396-47.519 2.888-62.781-14.371-1.605-22.984 11.362-45.431 33.779-54.826z" fill="#02ffb3"/><path d="m341.331 68.548c-1.067-2.547-3.999-3.745-6.544-2.679l-27.107 11.361 1.314-7.127c.501-2.715-1.294-5.323-4.01-5.824-2.716-.5-5.323 1.294-5.824 4.01l-2.501 13.56-30.385 12.735-30.385-12.735-2.501-13.56c-.501-2.716-3.105-4.513-5.824-4.01-2.715.501-4.511 3.108-4.01 5.824l1.315 7.126-27.107-11.361c-2.544-1.066-5.476.132-6.544 2.679-1.067 2.546.132 5.477 2.679 6.544l11.203 4.695-4.761 3.582c-2.207 1.66-2.649 4.795-.989 7.001.982 1.306 2.482 1.994 3.999 1.994 1.046 0 2.102-.328 3.003-1.005l9.43-7.096 45.493 19.067v43.342h10v-43.341l45.493-19.067 9.43 7.095c.901.678 1.956 1.005 3.002 1.005 1.518 0 3.017-.688 3.999-1.994 1.661-2.206 1.218-5.341-.989-7.001l-4.761-3.582 11.203-4.696c2.547-1.066 3.746-3.996 2.679-6.542z" fill="#00b574"/></g></g></g><g><path d="m271.274 351.373v28.69c0 2.761-2.239 5-5 5-2.761 0-5-2.239-5-5v-28.69z" fill="#ff5ba8"/></g><circle cx="315.132" cy="351.373" fill="#9fb0fe" r="18.02"/><circle cx="341.411" cy="385.063" fill="#9fb0fe" r="10.544"/><circle cx="213.395" cy="393.046" fill="#9fb0fe" r="10.544"/><g fill="#b7c5ff"><ellipse cx="296.425" cy="316.129" rx="9" ry="9" transform="matrix(.231 -.973 .973 .231 -79.549 531.65)"/><ellipse cx="242.49" cy="298.278" rx="9" ry="9" transform="matrix(.229 -.974 .974 .229 -103.37 466.065)"/><path d="m297.112 351.373c0-9.952 8.068-18.02 18.02-18.02s18.02 8.068 18.02 18.02z"/></g></g><path d="m408.8 412.678-78.329-118.823c-9.968-15.121-15.28-32.833-15.28-50.943v-81.914h-97.834v81.914c0 18.11-5.313 35.823-15.28 50.943l-78.329 118.823c-13.149 19.947 1.157 46.511 25.047 46.511h234.958c23.891 0 38.196-26.565 25.047-46.511z" fill="url(#SVGID_2_)"/></g><path d="m153.881 203.793c-1.28 0-2.559-.488-3.536-1.464-1.953-1.953-1.953-5.119 0-7.071l3.328-3.328-5.002-3.172c-1.282-.813-2.125-2.165-2.292-3.673-.167-1.509.361-3.012 1.434-4.085l7.742-7.742c1.954-1.952 5.119-1.952 7.071 0 1.953 1.953 1.953 5.119 0 7.071l-3.328 3.327 5.002 3.172c1.282.813 2.125 2.165 2.292 3.673.167 1.509-.361 3.012-1.434 4.085l-7.742 7.742c-.976.977-2.255 1.465-3.535 1.465z" fill="#ff7eb8"/><path d="m100.726 366.519c-1.28 0-2.559-.488-3.536-1.464-1.953-1.953-1.953-5.118 0-7.071l3.328-3.328-5.002-3.173c-1.282-.813-2.125-2.164-2.292-3.673s.361-3.012 1.434-4.085l7.742-7.742c1.954-1.952 5.119-1.951 7.071 0 1.953 1.953 1.953 5.119 0 7.071l-3.328 3.328 5.002 3.172c1.282.813 2.125 2.164 2.292 3.673s-.361 3.011-1.434 4.085l-7.742 7.742c-.976.976-2.256 1.465-3.535 1.465z" fill="#ff7eb8"/><path d="m390.013 260.05c-1.28 0-2.559-.488-3.536-1.464-1.953-1.953-1.953-5.119 0-7.071l3.328-3.328-5.003-3.173c-1.282-.813-2.125-2.164-2.291-3.673-.167-1.509.361-3.012 1.434-4.085l7.742-7.742c1.954-1.952 5.119-1.952 7.071 0 1.953 1.953 1.953 5.119 0 7.071l-3.328 3.328 5.003 3.173c1.282.813 2.125 2.164 2.292 3.673s-.361 3.012-1.434 4.085l-7.742 7.742c-.977.976-2.257 1.464-3.536 1.464z" fill="#01eca5"/><g fill="#6583fe"><path d="m374.108 201.591c-2.761 0-5-2.239-5-5 0-3.309-2.691-6-6-6-2.761 0-5-2.239-5-5s2.239-5 5-5c3.309 0 6-2.691 6-6 0-2.761 2.239-5 5-5s5 2.239 5 5c0 3.309 2.691 6 6 6 2.761 0 5 2.239 5 5s-2.239 5-5 5c-3.309 0-6 2.691-6 6 0 2.761-2.238 5-5 5z"/><path d="m122.808 147.431c-2.761 0-5-2.239-5-5 0-3.309-2.692-6-6.001-6-2.761 0-5-2.239-5-5s2.239-5 5-5c3.309 0 6.001-2.691 6.001-6 0-2.761 2.239-5 5-5s5 2.239 5 5c0 3.309 2.691 6 6 6 2.761 0 5 2.239 5 5s-2.239 5-5 5c-3.308 0-6 2.691-6 6 0 2.761-2.239 5-5 5z"/></g></g></g></svg>