<svg id="Flat" height="512" viewBox="0 0 512 512" width="512" xmlns="http://www.w3.org/2000/svg"><g fill="#d0d2d4"><path d="m152 264h-128a8 8 0 0 1 0-16h128a8 8 0 0 1 0 16z"/><path d="m488 264h-128a8 8 0 0 1 0-16h128a8 8 0 0 1 0 16z"/><path d="m360 232a8 8 0 0 1 -8-8v-48a88.1 88.1 0 0 0 -88-88h-16a88.1 88.1 0 0 0 -88 88v48a8 8 0 0 1 -16 0v-48a104.118 104.118 0 0 1 104-104h16a104.118 104.118 0 0 1 104 104v48a8 8 0 0 1 -8 8z"/><path d="m312 232a8 8 0 0 1 -8-8v-48a24.028 24.028 0 0 0 -24-24h-48a24.028 24.028 0 0 0 -24 24v48a8 8 0 0 1 -16 0v-48a40.045 40.045 0 0 1 40-40h48a40.045 40.045 0 0 1 40 40v48a8 8 0 0 1 -8 8z"/><path d="m264 440h-16a104.118 104.118 0 0 1 -104-104v-48a8 8 0 0 1 16 0v48a88.1 88.1 0 0 0 88 88h16a88.1 88.1 0 0 0 88-88v-48a8 8 0 0 1 16 0v48a104.118 104.118 0 0 1 -104 104z"/><path d="m280 376h-48a40.045 40.045 0 0 1 -40-40v-48a8 8 0 0 1 16 0v48a24.028 24.028 0 0 0 24 24h48a24.028 24.028 0 0 0 24-24v-48a8 8 0 0 1 16 0v48a40.045 40.045 0 0 1 -40 40z"/><path d="m360.006 264a8 8 0 0 1 -3.584-15.157l26.933-13.466a87.522 87.522 0 0 0 48.645-78.708v-92.669a8 8 0 0 1 16 0v92.669a104 104 0 0 1 -57.49 93.021l-26.932 13.465a7.976 7.976 0 0 1 -3.572.845z"/><path d="m360 264a8 8 0 0 1 -6.242-13l10.963-13.7a88.321 88.321 0 0 0 19.279-54.975v-118.325a8 8 0 0 1 16 0v118.325a104.371 104.371 0 0 1 -22.79 64.968l-10.963 13.707a7.985 7.985 0 0 1 -6.247 3z"/><path d="m151.994 264a7.976 7.976 0 0 1 -3.572-.847l-26.932-13.463a104 104 0 0 1 -57.49-93.021v-92.669a8 8 0 0 1 16 0v92.669a87.522 87.522 0 0 0 48.645 78.71l26.933 13.466a8 8 0 0 1 -3.584 15.155z"/><path d="m152.005 264a7.984 7.984 0 0 1 -6.252-3l-10.963-13.7a104.376 104.376 0 0 1 -22.79-64.975v-118.325a8 8 0 0 1 16 0v118.325a88.326 88.326 0 0 0 19.284 54.975l10.963 13.7a8 8 0 0 1 -6.242 13z"/><path d="m440 456a8 8 0 0 1 -8-8v-92.669a87.522 87.522 0 0 0 -48.645-78.71l-26.933-13.466a8 8 0 0 1 7.156-14.31l26.932 13.465a104 104 0 0 1 57.49 93.021v92.669a8 8 0 0 1 -8 8z"/><path d="m392 456a8 8 0 0 1 -8-8v-118.325a88.326 88.326 0 0 0 -19.284-54.975l-10.963-13.7a8 8 0 0 1 12.494-10l10.963 13.7a104.376 104.376 0 0 1 22.79 64.975v118.325a8 8 0 0 1 -8 8z"/><path d="m72 456a8 8 0 0 1 -8-8v-92.669a104 104 0 0 1 57.49-93.021l26.932-13.465a8 8 0 0 1 7.156 14.31l-26.933 13.466a87.522 87.522 0 0 0 -48.645 78.71v92.669a8 8 0 0 1 -8 8z"/><path d="m120 456a8 8 0 0 1 -8-8v-118.325a104.371 104.371 0 0 1 22.79-64.968l10.963-13.707a8 8 0 1 1 12.494 10l-10.963 13.7a88.321 88.321 0 0 0 -19.284 54.975v118.325a8 8 0 0 1 -8 8z"/></g><path d="m144 224h224v64h-224z" fill="#eb423f"/><path d="m328 264h-32a8 8 0 0 1 0-16h32a8 8 0 0 1 0 16z" fill="#e9eef2"/><path d="m312 280a8 8 0 0 1 -8-8v-32a8 8 0 0 1 16 0v32a8 8 0 0 1 -8 8z" fill="#e9eef2"/><path d="m144 224h112v64h-112z" fill="#3397e8"/><path d="m216 264h-32a8 8 0 0 1 0-16h32a8 8 0 0 1 0 16z" fill="#e9eef2"/><path d="m40.006 280a8 8 0 0 1 -3.584-15.157l17.689-8.843-17.689-8.845a8 8 0 0 1 7.156-14.31l32 16a8 8 0 0 1 0 14.31l-32 16a7.976 7.976 0 0 1 -3.572.845z" fill="#6a7073"/><path d="m440.006 280a8 8 0 0 1 -3.584-15.157l17.689-8.843-17.689-8.845a8 8 0 0 1 7.156-14.31l32 16a8 8 0 0 1 0 14.31l-32 16a7.976 7.976 0 0 1 -3.572.845z" fill="#6a7073"/><path d="m271.994 168a7.976 7.976 0 0 1 -3.572-.847l-32-16a8 8 0 0 1 0-14.31l32-16a8 8 0 1 1 7.156 14.31l-17.689 8.847 17.689 8.845a8 8 0 0 1 -3.584 15.155z" fill="#6a7073"/><path d="m408.006 136a8 8 0 0 1 -7.161-4.424l-8.845-17.687-8.845 17.689a8 8 0 0 1 -14.31-7.156l16-32a8 8 0 0 1 14.31 0l16 32a8 8 0 0 1 -7.149 11.578z" fill="#6a7073"/><path d="m120 136a8 8 0 0 1 -7.155-4.422l-16-32a8 8 0 1 1 14.31-7.156l8.845 17.689 8.845-17.689a8 8 0 0 1 14.31 7.156l-16 32a8 8 0 0 1 -7.155 4.422z" fill="#6a7073"/><path d="m136.006 424a8 8 0 0 1 -7.161-4.424l-8.845-17.687-8.845 17.689a8 8 0 1 1 -14.31-7.156l16-32a8 8 0 0 1 14.31 0l16 32a8 8 0 0 1 -7.149 11.578z" fill="#6a7073"/><path d="m392 424a8 8 0 0 1 -7.155-4.422l-16-32a8 8 0 0 1 14.31-7.156l8.845 17.689 8.845-17.689a8 8 0 1 1 14.31 7.156l-16 32a8 8 0 0 1 -7.155 4.422z" fill="#6a7073"/><path d="m271.994 104a7.976 7.976 0 0 1 -3.572-.847l-32-16a8 8 0 0 1 0-14.31l32-16a8 8 0 1 1 7.156 14.31l-17.689 8.847 17.689 8.845a8 8 0 0 1 -3.584 15.155z" fill="#6a7073"/><path d="m272.994 392a7.976 7.976 0 0 1 -3.572-.847l-32-16a8 8 0 0 1 0-14.31l32-16a8 8 0 1 1 7.156 14.31l-17.689 8.847 17.689 8.845a8 8 0 0 1 -3.584 15.155z" fill="#6a7073"/><path d="m271.994 456a7.976 7.976 0 0 1 -3.572-.847l-32-16a8 8 0 0 1 0-14.31l32-16a8 8 0 1 1 7.156 14.31l-17.689 8.847 17.689 8.845a8 8 0 0 1 -3.584 15.155z" fill="#6a7073"/></svg>