<svg id="Flat" height="512" viewBox="0 0 512 512" width="512" xmlns="http://www.w3.org/2000/svg"><path d="m434.42 488h-196.84a32 32 0 0 1 -30.1-42.87l88.52-245.13v-144h80v144l88.52 245.13a32 32 0 0 1 -30.1 42.87z" fill="#e1e3e6"/><path d="m409.53 456h-147.06a16 16 0 0 1 -15.12-21.234l64.65-186.766h48l64.65 186.766a16 16 0 0 1 -15.12 21.234z" fill="#3397e8"/><path d="m392 56h-112a16 16 0 0 1 -16-16 16 16 0 0 1 16-16h112a16 16 0 0 1 16 16 16 16 0 0 1 -16 16z" fill="#c3c6c7"/><path d="m288 368a120 120 0 1 1 -160-113.17v-70.83h80v70.83c.77.27 1.53.55 2.29.84a120.041 120.041 0 0 1 77.71 112.33z" fill="#e9eef2"/><path d="m256 368a88 88 0 1 1 -155.87-56h135.74a87.55 87.55 0 0 1 20.13 56z" fill="#b1bd70"/><g fill="#d0d2d4"><path d="m224 184h-112a16 16 0 0 1 -16-16 16 16 0 0 1 16-16h112a16 16 0 0 1 16 16 16 16 0 0 1 -16 16z"/><path d="m208 208v16h-16a8 8 0 0 1 0-16z"/><path d="m210.29 255.67a8.231 8.231 0 0 1 -2.29.33h-32a8 8 0 0 1 0-16h32v14.83c.77.27 1.53.55 2.29.84z"/><path d="m376 80v16h-16a8 8 0 0 1 0-16z"/><path d="m376 112v16h-32a8 8 0 0 1 0-16z"/><path d="m376 144v16h-16a8 8 0 0 1 0-16z"/><path d="m376 176v16h-32a8 8 0 0 1 0-16z"/></g><circle cx="144" cy="408" fill="#8f9e46" r="16"/><circle cx="192" cy="360" fill="#8f9e46" r="16"/><circle cx="128" cy="360" fill="#8f9e46" r="8"/><circle cx="208" cy="408" fill="#8f9e46" r="8"/><circle cx="312" cy="408" fill="#2978b8" r="16"/><circle cx="360" cy="360" fill="#2978b8" r="16"/><circle cx="296" cy="360" fill="#2978b8" r="8"/><circle cx="376" cy="408" fill="#2978b8" r="8"/></svg>