<svg id="Flat" height="512" viewBox="0 0 512 512" width="512" xmlns="http://www.w3.org/2000/svg"><path d="m128 56-32 8 32 56v352a16 16 0 0 0 16 16h272a16 16 0 0 0 16-16v-416z" fill="#e9eef2"/><path d="m160 200h240a0 0 0 0 1 0 0v240a16 16 0 0 1 -16 16h-208a16 16 0 0 1 -16-16v-240a0 0 0 0 1 0 0z" fill="#3397e8"/><g fill="#d0d2d4"><path d="m192 376h64v48h-64z" transform="matrix(-1 0 0 -1 448 800)"/><path d="m248 352h-48a8 8 0 0 1 0-16h48a8 8 0 0 1 0 16z"/><path d="m128 24-48.478 12.119a16 16 0 0 0 -11.641 19.4l.107.43a16 16 0 0 0 19.918 11.5l40.094-11.449h304a16 16 0 0 0 16-16 16 16 0 0 0 -16-16z"/><path d="m352 200a8 8 0 0 0 0-16h-40v-16h24a8 8 0 0 0 0-16h-24v-16h40a8 8 0 0 0 0-16h-48a8 8 0 0 0 -8 8v320a8 8 0 0 0 8 8h48a8 8 0 0 0 0-16h-40v-16h24a8 8 0 0 0 0-16h-24v-16h40a8 8 0 0 0 0-16h-40v-16h24a8 8 0 0 0 0-16h-24v-16h40a8 8 0 0 0 0-16h-40v-16h24a8 8 0 0 0 0-16h-24v-16h40a8 8 0 0 0 0-16h-40v-16h24a8 8 0 0 0 0-16h-24v-16z"/></g></svg>